<?xml version="1.0" encoding="UTF-8" standalone="no"?><svg height="16" width="16" version="1.1" id="svg4" xmlns="http://www.w3.org/2000/svg" xmlns:svg="http://www.w3.org/2000/svg" fill="currentColor"><defs id="defs8"/><path d="m 1.117,9.092625 4,-3 v 2 h 2 v 2 h -2 v 2 z M 9.695,0.129 c -0.28,0 -0.367,0.175 -0.394,0.43 V 1 H 4 C 3.45,1 3,1.45 3,2 l -10e-4,4.154125 1,-0.75 L 4,2 H 9.301 L 9.3,7.083 10.333,6.597 11.368,7.083 11.369,2 h 1.63 L 12.998,12.999 H 4 V 12.81 L 3,12.08 V 13 c 0,0.55 0.45,1 1,1 h 9 c 0.26266,-0.01276 0.512059,-0.119184 0.703,-0.3 C 13.893,13.52 13.98,13.28 14,13 L 14.001,1.999 c -0.02,-0.28 -0.107,-0.52 -0.297,-0.7 -0.190941,-0.1808158 -0.44034,-0.2872453 -0.703,-0.3 h -1.63 V 0.558 c 0,-0.306 -0.178,-0.43 -0.509,-0.43 z" id="path2"/></svg>
