<?xml version="1.0" encoding="UTF-8" standalone="no"?>
<svg
   width="16"
   height="16"
   version="1.1"
   id="svg4"
   xmlns="http://www.w3.org/2000/svg"
   xmlns:svg="http://www.w3.org/2000/svg">
  <defs
     id="defs8" />
  <path
     d="M 13.999,2 C 13.979,1.72 13.893,1.48 13.703,1.3 13.512059,1.1191842 13.26266,1.0127547 13,1 H 11.37 V 0.559 c 0,-0.306 -0.178,-0.43 -0.509,-0.43 H 9.695 c -0.28,0 -0.349,0.178 -0.394,0.43 V 1 H 4 C 3.45,1 3,1.45 3,2 v 11 c 0,0.55 0.45,1 1,1 h 9 c 0.262398,-0.01221 0.511765,-0.117914 0.703,-0.298 C 13.893,13.522 13.98,13.28 14,13 Z M 13,13 H 4 V 2 h 5.301 v 5.084 l 1.033,-0.486 1.035,0.486 V 2 h 1.63 z"
     fill="#c5c5c5"
     id="path2" />
</svg>
