<?xml version="1.0" encoding="UTF-8" standalone="no"?>
<svg
   height="16"
   width="16"
   version="1.1"
   id="svg4"
   xmlns="http://www.w3.org/2000/svg"
   xmlns:svg="http://www.w3.org/2000/svg">
  <defs
     id="defs8" />
  <path
     d="m 9.695,0.129 c -0.28,0 -0.349,0.178 -0.394,0.43 V 1 H 6.3650313 L 7.1970312,2 H 9.301 v 5.084 l 1.033,-0.486 1.035,0.486 V 2 h 1.629 L 13,13 H 4 V 9.0913742 l -1,-0.014 V 13 c 0,0.55 0.45,1 1,1 h 9 c 0.262,-0.012 0.512,-0.119 0.703,-0.299 C 13.893,13.521 13.98,13.28 14,13 L 13.998,2 C 13.978,1.72 13.893,1.48 13.703,1.3 13.513,1.12 13.263,1.013 13,1 H 11.37 V 0.559 c 0,-0.306 -0.178,-0.43 -0.509,-0.43 z M 4.555,0.789 1,4.973 3.139,5.002 3.143,7.826 5.994,7.866 5.986,5.043 8.127,5.074 4.555,0.79 Z"
     fill="#c5c5c5"
     id="path2" />
</svg>
