<?xml version="1.0" encoding="UTF-8" standalone="no"?><svg width="16" height="16" version="1.1" id="svg4" xmlns="http://www.w3.org/2000/svg" xmlns:svg="http://www.w3.org/2000/svg" fill="currentColor"><defs id="defs8"/><path d="m 3,4.5 h 8 c 0,-0.55 -0.45,-1 -1,-1 H 9 c -0.55,0 -1,-0.45 -1,-1 0,-0.55 -0.45,-1 -1,-1 -0.55,0 -1,0.45 -1,1 0,0.55 -0.45,1 -1,1 H 4 c -0.55,0 -1,0.45 -1,1 z m 9,8.23685 h 1 V 14.5 c -0.02,0.28 -0.11,0.52 -0.3,0.7 -0.19,0.18 -0.42,0.28 -0.7,0.3 H 2 c -0.55,0 -1,-0.45 -1,-1 v -11 c 0,-0.55 0.45,-1 1,-1 h 3 c 0,-1.11 0.89,-2 2,-2 1.11,0 2,0.89 2,2 h 3 c 0.55,0 1,0.45 1,1 V 8.2631502 H 12 V 5.5 H 2 v 9 H 12 Z M 10,9.5 v -2 l -3,3 3,3 v -2 h 5 v -2 z" id="path2"/></svg>
