<?xml version="1.0" encoding="UTF-8" standalone="no"?><svg width="16" height="16" version="1.1" id="svg884" xmlns="http://www.w3.org/2000/svg" xmlns:svg="http://www.w3.org/2000/svg" fill="currentColor"><defs id="defs888"/><path id="path880" d="M 6 2 L 5 3 L 5 5 L 3 5 L 2 6 L 2 13 L 3 14 L 10 14 L 11 13 L 11 11 L 13 11 L 14 10 L 14 3 L 13 2 L 6 2 z M 6 3 L 13 3 L 13 10 L 11 10 L 11 6 L 10 5 L 6 5 L 6 3 z M 3 6 L 10 6 L 10 13 L 3 13 L 3 6 z M 4 9 L 4 10 L 9 10 L 9 9 L 4 9 z " style="fill:#c5c5c5;"/></svg>
