<?xml version="1.0" encoding="UTF-8" standalone="no"?>
<svg
   height="16"
   width="16"
   version="1.1"
   id="svg4"
   xmlns="http://www.w3.org/2000/svg"
   xmlns:svg="http://www.w3.org/2000/svg">
  <defs
     id="defs8" />
  <path
     d="m 12.612,10.466 2.34,2.34 -1.3,1.299 -2.339,-2.34 -2.34,2.34 -1.3,-1.299 2.34,-2.34 -2.34,-2.34 1.299,-1.3 2.341,2.34 2.34,-2.34 1.3,1.3 z M 7,0.5 c -1.11,0 -2,0.89 -2,2 H 2 c -0.55,0 -1,0.45 -1,1 v 11 c 0,0.55 0.45,1 1,1 h 10 c 0.28,-0.02 0.51,-0.12 0.7,-0.3 0.04328,-0.041 0.09308,-0.104639 0.126336,-0.151626 l -0.103477,-0.107171 -0.4375,-0.4375 L 12,14.5 H 2 v -9 h 10 v 1.2204687 l 1,-1 V 3.5 c 0,-0.55 -0.45,-1 -1,-1 H 9 C 9,1.39 8.11,0.5 7,0.5 Z m 0,1 c 0.55,0 1,0.45 1,1 0,0.55 0.45,1 1,1 h 1 c 0.55,0 1,0.45 1,1 H 3 c 0,-0.55 0.45,-1 1,-1 h 1 c 0.55,0 1,-0.45 1,-1 0,-0.55 0.45,-1 1,-1 z"
     fill="#c5c5c5"
     id="path2" />
</svg>
