<?xml version="1.0" encoding="UTF-8" standalone="no"?><svg width="16" height="16" version="1.1" id="svg647" xmlns="http://www.w3.org/2000/svg" xmlns:svg="http://www.w3.org/2000/svg" fill="currentColor"><defs id="defs651"/><path d="m 13.365746,0.88035346 -0.063,0.06 -0.557,0.55700004 1.77,1.77 -1.77,1.77 0.62,0.619 2.388,-2.388 z m -7.6311251,0 0.063,0.06 0.557,0.55700004 -1.77,1.77 1.77,1.77 -0.62,0.619 -2.388,-2.388 z m 2.315,0 0.063,0.06 0.557,0.55700004 -1.77,1.77 1.77,1.77 -0.62,0.619 -2.389,-2.388 z m 3.0491251,0 -0.063,0.06 -0.557,0.55700004 1.77,1.77 -1.77,1.77 0.62,0.619 2.388,-2.388 z M 8.581,8.367 h -2 l 2.832,3.776 c 0.08524,0.113724 0.256467,0.111704 0.339,-0.004 l 2.83,-3.772 h -2 v -2 h -2 z M 0.634,1.2296772 v 6.459 h 5.8991159 v -1 H 1.634 v -4.46 h 0.9525328 l 0.9999999,-1 z M 4.11,8.947 v 6.459 h 11.65 v -6.46 h -2.021762 l -0.75,1 H 14.76 v 4.46 H 5.11 v -4.46 h 1.0939211 l -0.75,-1 z" id="path645"/></svg>
