<?xml version="1.0" encoding="UTF-8" standalone="no"?>
<svg
   height="16"
   width="16"
   version="1.1"
   id="svg1677"
   xmlns="http://www.w3.org/2000/svg"
   xmlns:svg="http://www.w3.org/2000/svg">
  <defs
     id="defs1681" />
  <g
     aria-label="m"
     id="text1276"
     style="font-size:19.1538px;font-family:'Times New Roman';-inkscape-font-specification:'Times New Roman, ';text-align:center;text-anchor:middle;fill:#ff7f2a;stroke-width:10.8589">
    <path
       id="path8989"
       d="M 3.4849266,7.9956891 Q 4.4201707,7.060445 4.5885146,6.9201584 5.0093745,6.5647656 5.4957014,6.3683643 5.9820283,6.1719631 6.4590028,6.1719631 q 0.8043099,0 1.3841613,0.467622 0.5798513,0.4676221 0.7762526,1.356104 0.9633014,-1.122293 1.6273243,-1.4683333 0.664024,-0.3553927 1.365457,-0.3553927 0.682728,0 1.206465,0.3553927 0.533089,0.3460403 0.841719,1.1409978 0.205754,0.5424416 0.205754,1.7021443 V 13.05536 q 0,0.80431 0.121582,1.103588 0.09352,0.205753 0.34604,0.355392 0.252516,0.140287 0.823015,0.140287 v 0.336688 H 10.92947 v -0.336688 h 0.177696 q 0.551794,0 0.860425,-0.215106 0.215106,-0.149639 0.30863,-0.476975 0.03741,-0.158991 0.03741,-0.907186 V 9.3704979 q 0,-1.0474734 -0.252516,-1.4776857 Q 11.69637,7.294256 10.89206,7.294256 q -0.49568,0 -1.0007114,0.2525159 Q 9.3956693,7.7899354 8.6848837,8.4633111 L 8.6661789,8.566188 8.6848837,8.9683429 V 13.05536 q 0,0.879129 0.093524,1.094235 0.1028768,0.215106 0.3740976,0.364745 0.2712208,0.140287 0.9258917,0.140287 v 0.336688 H 5.7482173 v -0.336688 q 0.7107855,0 0.9726538,-0.168344 Q 6.9920919,14.317939 7.0949688,13.981251 7.141731,13.82226 7.141731,13.05536 V 9.3704979 q 0,-1.0474734 -0.3086306,-1.505743 Q 6.421593,7.2661987 5.6827502,7.2661987 q -0.5050318,0 -1.0007112,0.2712208 Q 3.9057864,7.9489269 3.4849266,8.4633111 V 13.05536 q 0,0.841719 0.1122293,1.094235 0.1215817,0.252516 0.3460403,0.38345 0.233811,0.121582 0.9352441,0.121582 v 0.336688 H 0.64178453 v -0.336688 q 0.58920377,0 0.82301477,-0.121582 0.2338111,-0.130934 0.3553928,-0.402155 0.1215817,-0.280573 0.1215817,-1.07553 V 9.7820053 q 0,-1.4122186 -0.084172,-1.823726 Q 1.7921348,7.6496487 1.6518482,7.5374195 1.5115615,7.4158377 1.2683981,7.4158377 q -0.2618684,0 -0.62661357,0.1402866 L 0.50149792,7.2194365 3.0827716,6.1719631 h 0.402155 z M 11.933594,0.99023438 C 11.428835,0.98460538 10.916249,1.0945001 10.4375,1.3300781 10.304517,1.3878971 10.202153,1.4647469 10.082031,1.5332031 9.5890106,1.8552333 9.2079522,2.2882954 8.953125,2.78125 8.4641088,3.7272346 8.4415752,4.8891797 8.984375,5.8886719 A 1.9249197,1.9249197 0 0 1 9.6875,5.4941406 C 9.2900435,4.7535239 9.3008635,3.8948588 9.6503906,3.1894531 9.8312981,2.8243508 10.103338,2.5009587 10.455078,2.2539062 10.582222,2.1507348 10.739638,2.0906633 10.875,2.0136719 11.248553,1.84626 11.646514,1.7792291 12.035156,1.8007812 c 0.817546,0.045337 1.59695,0.4881931 2.03711,1.25 0.529253,0.9160089 0.414413,2.0256474 -0.203125,2.8085938 A 1.9249197,1.9249197 0 0 1 14.443359,6.4375 c 0.868996,-1.0379398 1.044669,-2.5486803 0.328125,-3.7890625 -0.60793,-1.0517735 -1.70523,-1.645571 -2.83789,-1.65820312 z m -1.18123,7.55286182 c -0.197099,0 -0.403245,0.045073 -0.628906,0.1445312 L 9.3105469,11.619141 v 0.302734 l 0.7109371,0.191406 0.978927,-3.5526067 c -0.0681,-0.011526 -0.149203,-0.017578 -0.248047,-0.017578 z"
       style="fill:#c5c5c5;fill-opacity:1" />
  </g>
  <g
     aria-label="m"
     id="g8994"
     style="font-size:19.1538px;font-family:'Times New Roman';-inkscape-font-specification:'Times New Roman, ';text-align:center;text-anchor:middle;fill:#ff7f2a;stroke-width:1.25;stroke:#000000" />
</svg>
