<?xml version="1.0" encoding="UTF-8" standalone="no"?><svg height="16" width="16" version="1.1" id="svg512" xmlns="http://www.w3.org/2000/svg" xmlns:svg="http://www.w3.org/2000/svg" fill="currentColor"><defs id="defs516"/><path id="path510" d="m 6.08,10.215 2.427,2.426 -2.426,2.427 h 2.41 l 2.426,-2.427 -2.426,-2.426 z m 4.283,0 2.427,2.426 -2.426,2.427 h 2.41 L 15.2,12.64 12.774,10.214 Z M 11.117,1.086 A 4.068,4.068 0 0 0 7.051,5.152 4.068,4.068 0 0 0 7.764,7.453 l -2.17,2.17 H 7.008 L 8.432,8.199 a 4.068,4.068 0 0 0 2.685,1.022 4.068,4.068 0 0 0 4.07,-4.069 4.068,4.068 0 0 0 -4.068,-4.066 z m 0.002,0.988 a 3.079,3.079 0 0 1 3.078,3.078 3.079,3.079 0 0 1 -3.078,3.08 3.079,3.079 0 0 1 -3.08,-3.08 3.079,3.079 0 0 1 3.08,-3.078 z m -6.004,8.028 -1.484,1.484 0.707,0.707 1.484,-1.484 z" style="fill:#c5c5c5;"/></svg>
