<?xml version="1.0" encoding="UTF-8" standalone="no"?>
<svg
   height="16"
   width="16"
   version="1.1"
   id="svg6"
   xmlns="http://www.w3.org/2000/svg"
   xmlns:svg="http://www.w3.org/2000/svg">
  <defs
     id="defs10" />
  <g
     aria-label="c"
     id="text1276"
     style="font-size:19.2px;font-family:'Times New Roman';-inkscape-font-specification:'Times New Roman, ';text-align:center;text-anchor:middle;fill:#ff7f2a;stroke-width:11.089" />
  <path
     id="path976"
     style="fill:#c5c5c5;stroke-width:0.815318;fill-opacity:1"
     d="M 10.082848,1.5325011 C 9.5898255,1.8545322 9.2087074,2.2888162 8.9538793,2.7817723 8.4525011,3.7516708 8.4400064,4.9486956 9.0259594,5.9647493 9.3609968,6.5447144 9.8637747,7.0096546 10.468129,7.2983853 L 9.2340229,11.9019 l 0.7874181,0.210988 1.22176,-4.5596717 c 0.791077,0.1611801 1.613783,0.028289 2.313882,-0.373759 1.587136,-0.9158135 2.130893,-2.9451427 1.214299,-4.5318282 -0.607933,-1.0517768 -1.705017,-1.6446588 -2.83768,-1.65729092 -0.504759,-0.005629 -1.016583,0.10397532 -1.495332,0.33955422 -0.132983,0.057819 -0.2354,0.1341522 -0.355522,0.2026087 z m 0.79286,0.4817008 c 0.373553,-0.1674122 0.771054,-0.2355842 1.159699,-0.2140318 0.817549,0.045337 1.596789,0.4892322 2.036949,1.2510415 0.693607,1.2004633 0.282721,2.7359106 -0.917742,3.4295187 C 11.953599,7.1746577 10.417425,6.763041 9.7242783,5.561575 9.288257,4.8057968 9.2897724,3.9176276 9.6501379,3.1903484 9.831046,2.8252449 10.102544,2.5009544 10.454284,2.2539013 10.581428,2.1507293 10.740346,2.0911936 10.875708,2.0142019 Z M 8.4257232,11.744683 c -0.23125,1.13125 -0.684375,2.003125 -1.359375,2.615625 -0.6750001,0.60625 -1.4218751,0.909375 -2.2406251,0.909375 -0.9750001,0 -1.8250001,-0.409375 -2.5500001,-1.228125 -0.7250001,-0.81875 -1.0875001,-1.925 -1.0875001,-3.31875 0,-1.3500001 0.4,-2.4468752 1.2000001,-3.2906252 0.80625,-0.8437501 1.771875,-1.2656251 2.8968751,-1.2656251 0.84375,0 1.5375,0.225 2.0812501,0.6750001 0.54375,0.44375 0.815625,0.90625 0.815625,1.3875 0,0.2375 -0.078125,0.43125 -0.234375,0.58125 -0.15,0.14375 -0.3625,0.215625 -0.6375,0.215625 -0.36875,0 -0.646875,-0.11875 -0.8343751,-0.35625 -0.10625,-0.13125 -0.178125,-0.38125 -0.215625,-0.75 -0.03125,-0.36875 -0.15625,-0.65 -0.375,-0.84375 -0.21875,-0.1875001 -0.521875,-0.2812501 -0.909375,-0.2812501 -0.6250001,0 -1.1281251,0.23125 -1.5093751,0.6937501 -0.50625,0.6125 -0.759375,1.421875 -0.759375,2.4281251 0,1.0250001 0.25,1.9312501 0.75,2.7187501 0.5062501,0.78125 1.1875001,1.171875 2.0437501,1.171875 0.6125,0 1.1625,-0.209375 1.6500001,-0.628125 0.34375,-0.2875 0.678125,-0.809375 1.003125,-1.565625 z" />
</svg>
