<?xml version="1.0" encoding="UTF-8" standalone="no"?>
<svg
   height="16"
   width="16"
   version="1.1"
   id="svg1416"
   xmlns="http://www.w3.org/2000/svg"
   xmlns:svg="http://www.w3.org/2000/svg">
  <defs
     id="defs1420" />
  <g
     aria-label="h"
     id="text1276"
     style="font-size:19.1538px;font-family:'Times New Roman';-inkscape-font-specification:'Times New Roman, ';text-align:center;text-anchor:middle;fill:#ff7f2a;stroke-width:10.8589" />
  <path
     id="path976"
     style="fill:#c5c5c5;stroke-width:0.815318;fill-opacity:1"
     d="M 10.082848,1.5325011 C 9.5898255,1.8545322 9.2087074,2.2888162 8.9538793,2.7817723 8.4525011,3.7516708 8.4400064,4.9486956 9.0259594,5.9647493 9.3609968,6.5447144 9.8637747,7.0096546 10.468129,7.2983853 L 9.2340229,11.9019 l 0.7874181,0.210988 1.22176,-4.5596717 c 0.791077,0.1611801 1.613783,0.028289 2.313882,-0.373759 1.587136,-0.9158135 2.130893,-2.9451427 1.214299,-4.5318282 -0.607933,-1.0517768 -1.705017,-1.6446588 -2.83768,-1.65729092 -0.504759,-0.005629 -1.016583,0.10397532 -1.495332,0.33955422 -0.132983,0.057819 -0.2354,0.1341522 -0.355522,0.2026087 z m 0.79286,0.4817008 c 0.373553,-0.1674122 0.771054,-0.2355842 1.159699,-0.2140318 0.817549,0.045337 1.596789,0.4892322 2.036949,1.2510415 0.693607,1.2004633 0.282721,2.7359106 -0.917742,3.4295187 C 11.953599,7.1746577 10.417425,6.763041 9.7242783,5.561575 9.288257,4.8057968 9.2897724,3.9176276 9.6501379,3.1903484 9.831046,2.8252449 10.102544,2.5009544 10.454284,2.2539013 10.581428,2.1507293 10.740346,2.0911936 10.875708,2.0142019 Z M 3.7184178,1.6921439 V 7.9582793 Q 4.7565387,6.8172815 5.3644474,6.4992985 5.972356,6.1719631 6.5802647,6.1719631 q 0.7294904,0 1.2532271,0.4021549 0.5237367,0.402155 0.7762526,1.2625796 0.1776964,0.5985562 0.1776964,2.1884714 v 3.030191 q 0,0.813662 0.1309341,1.11294 0.093524,0.224459 0.317983,0.355393 0.2244586,0.130934 0.8230151,0.130934 v 0.336688 H 5.8507743 v -0.336688 h 0.1964013 q 0.5985562,0 0.8323672,-0.177696 0.233811,-0.187049 0.3273354,-0.542442 0.028057,-0.149639 0.028057,-0.879129 v -3.030191 q 0,-1.4028664 -0.1496391,-1.8424311 Q 6.9450099,7.7431732 6.6270269,7.528067 6.3090439,7.3036084 5.8601267,7.3036084 q -0.4582696,0 -0.9539489,0.2431635 -0.4956794,0.2431635 -1.18776,0.9820063 V 13.05536 q 0,0.879129 0.093524,1.094235 0.1028768,0.215106 0.3647452,0.364745 0.2712208,0.140287 0.9258916,0.140287 v 0.336688 H 0.85657083 v -0.336688 q 0.57049887,0 0.89783437,-0.177696 Q 1.941454,14.383406 2.0536833,14.121538 2.1659126,13.85967 2.1659126,13.05536 V 5.3021861 q 0,-1.4683333 -0.07482,-1.8050211 Q 2.025626,3.1604771 1.8759869,3.0388954 1.7357003,2.9173136 1.4925368,2.9173136 q -0.1964012,0 -0.63596597,0.1496391 L 0.72563666,2.7396172 3.2882055,1.6921439 Z" />
</svg>
