<?xml version="1.0" encoding="UTF-8" standalone="no"?><svg height="16" width="16" version="1.1" id="svg1984" xmlns="http://www.w3.org/2000/svg" xmlns:svg="http://www.w3.org/2000/svg" fill="currentColor"><defs id="defs1988"/><path id="path976-1" style="fill:#c5c5c5;stroke-width:0.815318" d="M 11.933594,0.99023438 C 11.428835,0.98460538 10.916249,1.0944995 10.4375,1.3300781 10.304517,1.3878971 10.202153,1.4647467 10.082031,1.5332031 9.5890092,1.8552339 9.2079528,2.2882944 8.953125,2.78125 8.4517473,3.7511475 8.4394382,4.9487911 9.0253906,5.9648438 9.3604277,6.5448083 9.8643963,7.0100977 10.46875,7.2988281 L 9.9394531,9.2734375 a 4.2502201,4.2502201 0 0 0 -3.96875,-2.7578125 4.2502201,4.2502201 0 0 0 -4.25,4.25 4.2502201,4.2502201 0 0 0 4.25,4.25 4.2502201,4.2502201 0 0 0 4.0312499,-2.908203 l 0.01953,0.0059 1.222657,-4.5605466 c 0.791076,0.1611799 1.612401,0.029001 2.3125,-0.3730469 1.587134,-0.9158126 2.131436,-2.9445661 1.214843,-4.53125 -0.607932,-1.0517757 -1.705228,-1.645571 -2.83789,-1.65820312 z M 11.888672,1.796875 c 0.04879,-1.284e-4 0.0979,0.00121 0.146484,0.00391 0.817548,0.045337 1.59695,0.4881915 2.03711,1.25 0.693606,1.2004621 0.282493,2.7360801 -0.917969,3.4296876 C 11.953283,7.1743955 10.417755,6.7639648 9.7246094,5.5625 9.2885885,4.8067226 9.2900255,3.9167316 9.6503906,3.1894531 9.8312985,2.82435 10.103338,2.5009591 10.455078,2.2539062 10.582222,2.1507344 10.739638,2.0906635 10.875,2.0136719 11.201859,1.8671863 11.547119,1.797774 11.888672,1.796875 Z m -5.9179689,5.59375 a 3.3733428,3.3733428 0 0 1 3.3730469,3.375 3.3733428,3.3733428 0 0 1 -3.3730469,3.373047 3.3733428,3.3733428 0 0 1 -3.3730469,-3.373047 3.3733428,3.3733428 0 0 1 3.3730469,-3.375 z m 0,0.9472656 -0.4433593,0.2578125 v 2.5761719 h 2.5566406 l 0.203125,-0.441406 -0.203125,-0.447266 H 6.4160156 V 8.5957031 Z"/></svg>
