<?xml version="1.0" encoding="UTF-8" standalone="no"?><svg height="16" width="16" version="1.1" id="svg1416" xmlns="http://www.w3.org/2000/svg" xmlns:svg="http://www.w3.org/2000/svg" fill="currentColor"><defs id="defs1420"/><path id="path976-5" style="fill:#c5c5c5;stroke-width:0.815318" d="M 10.082848,1.5325011 C 9.5898255,1.8545322 9.2087074,2.2888162 8.9538793,2.7817723 8.4525011,3.7516708 8.4400064,4.9486956 9.0259594,5.9647493 9.3609968,6.5447144 9.8637747,7.0096546 10.468129,7.2983853 L 9.2340229,11.9019 l 0.7874181,0.210988 1.22176,-4.5596717 c 0.791077,0.1611801 1.613783,0.028289 2.313882,-0.373759 1.587136,-0.9158135 2.130893,-2.9451427 1.214299,-4.5318282 -0.607933,-1.0517768 -1.705017,-1.6446588 -2.83768,-1.65729092 -0.504759,-0.005629 -1.016583,0.10397532 -1.495332,0.33955422 -0.132983,0.057819 -0.2354,0.1341522 -0.355522,0.2026087 z m 0.79286,0.4817008 c 0.373553,-0.1674122 0.771054,-0.2355842 1.159699,-0.2140318 0.817549,0.045337 1.596789,0.4892322 2.036949,1.2510415 0.693607,1.2004633 0.282721,2.7359106 -0.917742,3.4295187 C 11.953599,7.1746577 10.417425,6.763041 9.7242783,5.561575 9.288257,4.8057968 9.2897724,3.9176276 9.6501379,3.1903484 9.831046,2.8252449 10.102544,2.5009544 10.454284,2.2539013 10.581428,2.1507293 10.740346,2.0911936 10.875708,2.0142019 Z M 5.5955106,7.9251343 2.5427761,10.977869 5.5955106,14.032556 V 11.948572 H 8.0642605 V 10.009119 H 5.5955106 Z"/></svg>
