<?xml version="1.0" encoding="UTF-8" standalone="no"?><svg height="16" width="16" version="1.1" id="svg1677" xmlns="http://www.w3.org/2000/svg" xmlns:svg="http://www.w3.org/2000/svg" fill="currentColor"><defs id="defs1681"/><path id="path976" style="fill:#c5c5c5;stroke-width:0.81532" d="M 10.082848,1.5325011 C 9.5898256,1.8545322 9.2087075,2.2888162 8.9538793,2.7817723 8.4525011,3.7516708 8.4400064,4.9486957 9.0259594,5.9647492 9.3609956,6.5447143 9.8637748,7.0096548 10.468129,7.2983853 L 9.2340228,11.9019 l 0.7874182,0.210988 1.22176,-4.5596718 c 0.791077,0.1611817 1.613783,0.028271 2.313882,-0.3737575 1.587136,-0.915815 2.130893,-2.9451439 1.214299,-4.5318296 -0.607933,-1.0517768 -1.705017,-1.6446588 -2.83768,-1.65729093 -0.504759,-0.005629 -1.016583,0.10397533 -1.495332,0.33955423 -0.132983,0.057819 -0.2354,0.1341522 -0.355522,0.2026087 z m 0.79286,0.4817008 c 0.373553,-0.1674122 0.771054,-0.2355842 1.159699,-0.2140318 0.817549,0.045337 1.596789,0.4892322 2.036949,1.2510415 0.693607,1.2004633 0.282721,2.7359107 -0.917742,3.4295187 C 11.953599,7.1746576 10.417425,6.763041 9.7242782,5.5615749 9.2882571,4.8057967 9.2897723,3.9176278 9.6501378,3.1903484 9.831046,2.8252449 10.102544,2.5009544 10.454284,2.2539013 10.581427,2.1507293 10.740345,2.0911938 10.875708,2.0142019 Z M 7.5270155,5.9164763 H 3.192326 c -0.3955498,0 -0.5427656,0.1457288 -0.5427656,0.5412786 v 8.1288441 l 2.7101103,-1.675138 2.7093668,1.675138 V 6.4577549 c 0,-0.3955498 -0.1464724,-0.5420221 -0.542022,-0.5420221 z M 7.1046992,8.2191407 6.0964936,8.9559636 6.4868386,10.126256 c 0.032715,0.118962 -0.011153,0.151676 -0.1085531,0.0922 L 5.3596707,9.492781 4.3410558,10.218452 c -0.1033485,0.05948 -0.1353196,0.02751 -0.1085531,-0.0922 L 4.6228478,8.9559636 3.6146422,8.2191407 C 3.5224464,8.1321495 3.5388037,8.0942302 3.6637141,8.0942302 L 4.9098445,8.0778733 5.2890368,6.9075816 h 0.1353196 l 0.3791924,1.1702917 1.2468739,0.016357 c 0.1249104,0 0.1464723,0.043868 0.048329,0.1249105 z"/></svg>
