<?xml version="1.0" encoding="UTF-8" standalone="no"?><svg width="16" height="16" version="1.1" id="svg383" xmlns="http://www.w3.org/2000/svg" xmlns:svg="http://www.w3.org/2000/svg" fill="currentColor"><defs id="defs387"/><path id="path381" d="M 11.117,1.086 A 4.068,4.068 0 0 0 7.051,5.152 4.068,4.068 0 0 0 7.764,7.453 L 6.002,9.215 H 7.416 L 8.432,8.199 a 4.068,4.068 0 0 0 2.685,1.022 4.068,4.068 0 0 0 4.07,-4.069 4.068,4.068 0 0 0 -4.068,-4.066 z m 0.002,0.988 a 3.079,3.079 0 0 1 3.078,3.078 3.079,3.079 0 0 1 -3.078,3.08 3.079,3.079 0 0 1 -3.08,-3.08 3.079,3.079 0 0 1 3.08,-3.078 z M 9.927,10.215 7.5,12.64 9.926,15.067 H 7.516 L 5.09,12.64 7.516,10.214 Z m -4.373,0 -2.427,2.425 2.426,2.427 H 3.143 L 0.716,12.64 3.142,10.214 Z" style="fill:#c5c5c5;"/></svg>
