<?xml version="1.0" encoding="UTF-8" standalone="no"?>
<svg
   viewBox="0 0 6.3497143 6.3497143"
   height="24"
   width="24"
   version="1.1"
   id="svg3932"
   xmlns="http://www.w3.org/2000/svg"
   xmlns:svg="http://www.w3.org/2000/svg">
  <defs
     id="defs3936" />
  <path
     d="M 1.5925715,0.31371429 A 0.40971429,0.40971429 0 0 0 1.188,0.72942858 V 1.1237143 L 1.207714,1.0894287 C 1.2994286,0.97971431 1.368,0.89914287 1.5051429,0.86400002 a 1.6165715,1.6628571 0 0 1 0.3102857,-0.0402856 c 0.108858,-0.002571 0.2571429,0.0334286 0.2965714,0.066 A 0.92400002,0.95142858 0 0 1 2.3948573,1.2728572 C 2.4771429,1.4614286 2.46,1.8728571 2.3631429,1.962 2.2971429,2.022 1.998,1.938 1.92,1.896 1.7948571,1.8274286 1.6662858,1.6988571 1.4742857,1.6122858 1.4125715,1.584 1.2737143,1.5548571 1.188,1.5128571 V 4.0328573 L 2.2251429,3.9317144 A 0.14571429,0.15 0 1 1 2.2525719,4.23 L 1.188,4.3328573 V 4.5565715 L 2.2105715,4.3517144 A 0.14630918,0.15061239 0 0 1 2.266286,4.6474287 L 1.188,4.8617144 V 5.1831429 A 0.70628573,0.70628573 0 0 1 1.249714,5.0914284 C 1.3885715,4.9234287 1.6688571,4.9097144 1.8488571,4.8797144 1.9448571,4.8642858 2.0485715,4.8642858 2.1445715,4.848 2.562,4.782 2.5277144,4.7708573 2.6862858,4.6011429 c 0.048857,-0.054 0.087429,-0.1277145 0.1542857,-0.1542856 A 0.88285716,0.90857144 0 0 1 3.132,4.3954287 c -0.00257,-0.024 -0.00257,-0.048 -0.012855,-0.068571 C 3.1011429,4.2917144 3.072,4.2617144 3.0462858,4.23 2.8405715,3.9668573 2.7505715,3.8365715 2.5662858,3.738 2.4522858,3.678 2.22,3.6737144 2.1994286,3.6162858 2.1462858,3.462 2.1857144,3.3574286 2.388,3.3488573 2.5131429,3.342 2.6382858,3.3574286 2.7634286,3.3694286 A 7.8505716,8.0785716 0 0 0 3.918,3.366 C 4.056858,3.357435 4.1931429,3.3222855 4.332,3.3222855 A 0.41657144,0.42857144 0 0 1 4.5497144,3.363429 C 4.578,3.3805715 4.6285715,3.5297144 4.5094287,3.558 4.1897144,3.6317144 3.7705715,3.8871429 3.4671429,4.29 3.4534286,4.3071429 3.4448573,4.374 3.438,4.3988573 a 0.79714287,0.82028573 0 0 1 0.48,0.2382856 C 3.981429,4.698 4.032858,4.7982858 4.1185715,4.8077144 4.6071429,4.8754287 4.884,4.9208573 5.2782858,5.1385715 c 0.1191435,0.135429 0.085714,0.2417143 -0.00343,0.3325714 -0.078857,0.081429 -0.006,0.24 -0.078857,0.3068573 C 5.1034287,5.8611429 4.944,5.7720002 4.884,5.7017144 4.806858,5.6099999 4.824,5.5637144 4.776,5.4514287 4.714286,5.3082852 4.634571,5.1634287 4.3268573,5.1034287 A 4.7451429,4.7451429 0 0 0 3.27,5.0091429 c -0.2185714,8.571e-4 -0.414,0 -0.6728571,0.056571 -0.3154285,0.069429 -0.5254285,0.036 -0.6325714,0.092571 -0.12,0.063429 -0.1817144,0.1757144 -0.2614286,0.2528571 C 1.5317144,5.5765715 1.5214286,5.7137144 1.3774286,5.7822858 1.3431429,5.7985715 1.2617143,5.7754287 1.2077143,5.7428573 A 0.40285715,0.40285715 0 0 0 1.5925715,6.0360002 H 4.9542858 A 0.40971429,0.40971429 0 0 0 5.3588573,5.6202858 V 4.6371429 H 4.3114287 a 0.14571429,0.15 0 0 1 0,-0.3 h 1.0474286 v -0.246 L 4.332,4.2 A 0.14571429,0.15 0 0 1 4.1725715,4.0662858 0.14571429,0.15 0 0 1 4.3028573,3.9017144 l 1.056,-0.110571 V 1.6114286 a 0.31714286,0.32571429 0 0 1 -0.15,0.134571 C 4.9577144,1.8728571 4.6405715,2.0494286 4.4434287,2.0888571 4.3148573,2.1145715 4.1485715,1.9551429 4.1417144,1.848 4.1314287,1.6782858 4.1142858,1.5411429 4.1811429,1.362 4.2282858,1.2342857 4.3774287,0.98914287 4.5214287,0.95057144 c 0.084,-0.0222857 0.1662857,-0.0377144 0.2434286,-0.0402857 0.2357142,-0.009429 0.42,0.10199996 0.5571429,0.38399996 A 0.69085716,0.71142858 0 0 1 5.3588567,1.392 V 0.72942858 A 0.40971429,0.40971429 0 0 0 4.9542858,0.31371429 Z M 1.188,4.56 0.54514287,4.6851429 c -0.20571429,0.025715 -0.14571435,0.336 0.054,0.2854286 L 1.188,4.8565715 Z M 5.3588573,4.3405715 V 4.632 h 0.4474285 c 0.1945715,0 0.1945715,-0.2914285 0,-0.2914285 z M 1.188,4.0371429 0.52971429,4.0988573 c -0.192,0.019715 -0.16457143,0.3068571 0.0274285,0.2914285 L 1.188,4.3302858 Z M 5.8045715,3.7525715 5.7874287,3.7534287 5.3588573,3.7962858 V 4.0894287 L 5.8157144,4.0431432 C 6.0025715,4.0294332 5.9914287,3.7525718 5.8045694,3.7517147 Z"
     fill="#fff"
     id="path3930"
     style="fill:#c5c5c5;stroke-width:0.857144;fill-opacity:1" />
</svg>
