<?xml version="1.0" encoding="UTF-8" standalone="no"?><svg width="24" height="24" viewBox="0 0 6.3497143 6.3497143" version="1.1" id="svg4056" xmlns="http://www.w3.org/2000/svg" xmlns:svg="http://www.w3.org/2000/svg" fill="currentColor"><defs id="defs4060"/><path d="M 0.79375118,0 V 4.0455456 L 0.13291963,4.1072576 A 0.14592594,0.14592552 0 1 0 0.16034713,4.397817 L 0.79375118,4.3378192 V 4.5949514 L 0.1474905,4.7200886 a 0.14570865,0.14570822 0 1 0 0.054855,0.2854166 L 0.79375118,4.8915101 V 6.3494497 H 5.7538447 V 4.5966656 h 0.4499826 a 0.14570868,0.14570825 0 1 0 0,-0.2914165 H 5.7538447 V 4.0258323 L 6.2132555,3.9795478 A 0.14570865,0.14570822 0 1 0 6.1841135,3.6898456 L 5.7538445,3.732701 V 0 Z M 1.1880216,0.39426928 H 5.3595742 V 1.4442255 a 0.69083038,0.69082835 0 0 0 -0.037713,-0.09771 C 5.1847239,1.072241 5.0004453,0.96424554 4.7647401,0.9736737 4.6876005,0.97624513 4.6053178,0.99081571 4.521321,1.0122434 4.3773267,1.0499561 4.2281895,1.288232 4.1810486,1.4125125 4.1141937,1.5865052 4.1313366,1.7193569 4.1416215,1.8839214 4.1484787,1.9884886 4.3156148,2.1427677 4.4433242,2.1179116 4.6404592,2.080199 4.9575899,1.9087776 5.208723,1.7853542 A 0.31713057,0.31712964 0 0 0 5.3595742,1.6533597 V 3.7738428 L 4.3027582,3.8809813 A 0.14570865,0.14570822 0 0 0 4.172477,4.0404033 0.14570865,0.14570822 0 0 0 4.3318995,4.170684 L 5.3604313,4.0661162 V 4.3052491 H 4.3113291 a 0.14570868,0.14570825 0 1 0 0,0.2914165 H 5.3587173 V 5.9551804 H 1.1871645 V 5.6611927 c 0.051427,0.037712 0.1517084,0.06514 0.1902783,0.047141 0.1439944,-0.065997 0.1551369,-0.1997061 0.3257018,-0.3608423 0.079711,-0.074569 0.1414232,-0.1834209 0.2614183,-0.2451325 0.1071388,-0.054855 0.3171307,-0.022284 0.632547,-0.089996 0.258847,-0.055712 0.4542681,-0.053998 0.672831,-0.055712 0.3488436,-0.00171 0.6188332,0.00944 1.0568162,0.092567 0.3077023,0.058283 0.3874136,0.1988488 0.4491256,0.3377002 0.047999,0.108853 0.030855,0.1542793 0.1079954,0.2434184 0.059998,0.068569 0.2194202,0.1542793 0.311988,0.073711 0.072854,-0.064283 0,-0.2185621 0.078855,-0.2974161 0.08914,-0.088282 0.1225665,-0.1919919 0.00343,-0.3239864 C 4.8838784,4.87094 4.6061749,4.8272274 4.1184795,4.7612303 4.0327686,4.752659 3.9813419,4.6549488 3.9179158,4.5958084 A 0.79711198,0.79710964 0 0 0 3.4379345,4.3643894 c 0.00686,-0.023999 0.015428,-0.08914 0.029142,-0.1062805 C 3.7704935,3.8672674 4.18962,3.6187063 4.5093219,3.5467094 4.6284601,3.5192816 4.577891,3.3752879 4.5496061,3.3581459 A 0.41655528,0.41655406 0 0 0 4.3318998,3.3178618 c -0.1388522,0 -0.2751321,0.034284 -0.413984,0.042855 a 7.8502673,7.8502443 0 0 1 -1.1545266,0.00257 C 2.6382517,3.3521371 2.513113,3.337569 2.3871181,3.343569 2.1856972,3.3521341 2.1462702,3.4541351 2.1994109,3.6032725 c 0.020571,0.055712 0.2528474,0.059998 0.366843,0.1182807 0.1842785,0.095996 0.2742751,0.2228478 0.4799814,0.4782658 0.025713,0.030855 0.054854,0.059998 0.072854,0.095138 0.01029,0.019713 0.01029,0.042855 0.012855,0.065998 A 0.88282296,0.88282038 0 0 0 2.8405283,4.410667 C 2.773674,4.4363802 2.735104,4.5083764 2.6862485,4.5606609 2.5276833,4.7260825 2.5619674,4.7363678 2.1445553,4.8006509 c -0.095997,0.015428 -0.1997065,0.015428 -0.2957029,0.030855 -0.179993,0.029142 -0.4602678,0.042855 -0.5991197,0.2057057 -0.026571,0.031713 -0.043713,0.059998 -0.062569,0.090853 V 4.8143708 L 2.2662656,4.6052367 A 0.14582271,0.14582228 0 1 0 2.2105534,4.3189629 L 1.1871645,4.5178118 V 4.3001065 L 2.2525518,4.199825 A 0.14570865,0.14570822 0 1 0 2.2251243,3.9101228 L 1.1880216,4.0086901 V 1.5599349 c 0.085711,0.040284 0.2245628,0.068569 0.2854175,0.095996 0.1928497,0.083996 0.3214162,0.2099912 0.446554,0.2759884 0.077997,0.041141 0.3771283,0.1225662 0.4431259,0.064283 C 2.459972,1.9087775 2.4771144,1.509366 2.394832,1.3259451 A 0.92396419,0.92396148 0 0 0 2.1119858,0.95396024 c -0.039427,-0.031713 -0.187707,-0.0668543 -0.2965599,-0.0642831 a 1.6165088,1.616504 0 0 0 -0.3102738,0.039427 C 1.3680147,0.96338834 1.2994458,1.0413851 1.2077351,1.1485235 l -0.020571,0.034284 z" id="path4054" style="fill:#c5c5c5;"/></svg>
