<?xml version="1.0" encoding="UTF-8" standalone="no"?><svg width="16" height="16" version="1.1" id="svg4" xmlns="http://www.w3.org/2000/svg" xmlns:svg="http://www.w3.org/2000/svg" fill="currentColor"><defs id="defs8"/><path id="path395" style="fill:#c5c5c5;" d="m 9.6247257,7.4396875 v 2.8964375 h 2.8748123 l 0.23,-0.4960005 -0.23,-0.5039995 H 10.624726 V 7.4396875 l -0.5,-0.2895 z M 2.9254757,1 l -0.5,0.5 v 12 l 0.5,0.5 H 7.6969601 A 4.7929688,4.7929688 0 0 0 10.124695,14.671875 4.7929688,4.7929688 0 0 0 14.917664,9.8789062 4.7929688,4.7929688 0 0 0 13.425476,6.4179688 V 5 l -0.09961,-0.4003906 -3.4003913,-3.5 L 9.6246947,1 Z m 0.5,1 h 5 v 3.4101562 a 4.7929688,4.7929688 0 0 0 -3.09375,4.46875 A 4.7929688,4.7929688 0 0 0 6.4879757,13 h -3.0625 z m 6,0 2.9003913,3 H 9.4254757 Z M 10.124695,6.0859375 A 3.793,3.793 0 0 1 13.917664,9.8789062 3.793,3.793 0 0 1 10.124695,13.671875 3.793,3.793 0 0 1 6.3317257,9.8789062 3.793,3.793 0 0 1 10.124695,6.0859375 Z"/></svg>
