<?xml version="1.0" encoding="UTF-8" standalone="no"?>
<svg
   height="16"
   width="16"
   version="1.1"
   id="svg4"
   xmlns="http://www.w3.org/2000/svg"
   xmlns:svg="http://www.w3.org/2000/svg">
  <defs
     id="defs8" />
  <path
     d="m 7,0.5 c -1.11,0 -2,0.89 -2,2 H 2 c -0.55,0 -1,0.45 -1,1 v 11 c 0,0.55 0.45,1 1,1 h 10 c 0.28,-0.02 0.51,-0.12 0.7,-0.3 0.19,-0.18 0.28,-0.42 0.3,-0.7 v -1.0585 h 1.973 V 7.219 H 13 V 3.5 c 0,-0.55 -0.45,-1 -1,-1 H 9 C 9,1.39 8.11,0.5 7,0.5 Z m 0,1 c 0.55,0 1,0.45 1,1 0,0.55 0.45,1 1,1 h 1 c 0.55,0 1,0.45 1,1 H 3 c 0,-0.55 0.45,-1 1,-1 h 1 c 0.55,0 1,-0.45 1,-1 0,-0.55 0.45,-1 1,-1 z m -5,4 H 12 V 7.219 H 4.182 v 6.2225 H 12 V 14.5 H 2 Z m 3.1868687,2.7238684 h 8.7812623 l 0.01172,4.2127626 H 5.1985874 Z"
     fill="#c5c5c5"
     id="path2" />
</svg>
