<?xml version="1.0" encoding="UTF-8" standalone="no"?>
<svg
   height="16"
   width="16"
   version="1.1"
   id="svg4"
   xmlns="http://www.w3.org/2000/svg"
   xmlns:svg="http://www.w3.org/2000/svg">
  <defs
     id="defs8" />
  <path
     id="path2"
     d="m 7.521466,6.7030291 c -0.543,0 -1.075,0.31 -1.475,0.765 -0.4,0.457 -0.674,1.07 -0.674,1.715 0,0.644 0.264,1.2579999 0.66,1.7149999 0.397,0.457 0.931,0.766 1.489,0.766 h 0.08669 c 0.089,0 0.164,-0.075 0.164,-0.164 v -0.662 c -0.00108,-0.09012 -0.073876,-0.162921 -0.164,-0.164 h -0.08669 c -0.264,0 -0.557,-0.169 -0.782,-0.448 -0.2394575,-0.2962519 -0.3728767,-0.6641226 -0.379,-1.0449999 0,-0.38 0.156,-0.76 0.383,-1.04 0.227,-0.28 0.522,-0.45 0.778,-0.45 h 2.648 c 0.256,0 0.55,0.17 0.777,0.45 0.228,0.28 0.383,0.662 0.383,1.042 0,0.487 -0.262,0.9919999 -0.6,1.2539999 -0.03985,0.03126 -0.06279,0.07936 -0.062,0.13 v 0.769 c 0.001,0.115 0.13,0.195 0.234,0.146 0.785,-0.381 1.416,-1.296 1.416,-2.2989999 0,-0.645 -0.272,-1.258 -0.671,-1.715 -0.4,-0.456 -0.934,-0.765 -1.477,-0.765 z m 5.66434,2.15 v 0.66 c 0,0.09 0.075,0.164 0.164,0.164 h 0.12766 c 0.264,0 0.56,0.17 0.784,0.4499999 0.226,0.28 0.379,0.662 0.379,1.043 0,0.38 -0.156,0.76 -0.383,1.04 -0.227,0.28 -0.524,0.45 -0.78,0.45 h -2.646 c -0.256,0 -0.552,-0.17 -0.78,-0.45 -0.2400058,-0.294851 -0.37385,-0.661866 -0.38,-1.042 0,-0.494 0.26,-0.992 0.598,-1.2539999 0.04036,-0.03105 0.064,-0.07908 0.064,-0.13 v -0.767 c -0.0049,-0.117467 -0.126353,-0.1932685 -0.234,-0.146 -0.784,0.381 -1.418,1.2959999 -1.418,2.2989999 0,0.645 0.274,1.258 0.674,1.714 0.4,0.457 0.933,0.766 1.476,0.766 h 2.647 c 0.542,0 1.077,-0.31 1.476,-0.766 0.4,-0.456 0.674,-1.07 0.674,-1.714 -0.0093,-0.631919 -0.243253,-1.2398899 -0.66,-1.7149999 v -0.002 c -0.397,-0.457 -0.933,-0.764 -1.49,-0.764 h -0.04066 c -0.224,0.018 -0.23,0.064 -0.252,0.164 z M 7,0.5 c -1.11,0 -2,0.89 -2,2 H 2 c -0.55,0 -1,0.45 -1,1 v 11 c 0,0.55 0.45,1 1,1 h 10 c 0.28,-0.02 0.51,-0.12 0.7,-0.3 0.19,-0.18 0.28,-0.42 0.3,-0.7 H 12 2 v -9 h 10 v 0.6184374 c 0.299844,0.15625 0.66602,0.5939923 0.829375,0.8656564 L 13,6.9730625 V 3.5 c 0,-0.55 -0.45,-1 -1,-1 H 9 C 9,1.39 8.11,0.5 7,0.5 Z m 0,1 c 0.55,0 1,0.45 1,1 0,0.55 0.45,1 1,1 h 1 c 0.55,0 1,0.45 1,1 H 3 c 0,-0.55 0.45,-1 1,-1 h 1 c 0.55,0 1,-0.45 1,-1 0,-0.55 0.45,-1 1,-1 z"
     style="fill:#c5c5c5;fill-opacity:1" />
</svg>
