<?xml version="1.0" encoding="UTF-8" standalone="no"?><svg width="16" height="16" version="1.1" id="svg6" xmlns="http://www.w3.org/2000/svg" xmlns:svg="http://www.w3.org/2000/svg" fill="currentColor"><defs id="defs10"/><path id="path4" style="sfill:#c5c5c5;" d="m 7.3084163,5.8895893 a 0.05748629,0.05748629 0 0 0 -0.051327,0.058513 v 2.6484756 a 0.05748629,0.05748629 0 0 0 0.057486,0.057486 h 2.6484756 a 0.05748629,0.05748629 0 0 0 0.041062,-0.097521 L 9.0124742,7.5659306 a 3.5230885,3.5230885 0 0 1 1.6640228,-0.427041 3.5744156,3.5744156 0 0 1 3.571336,3.5703094 c 0,0.469129 -0.09239,0.916701 -0.258688,1.327317 a 0.05748629,0.05748629 0 0 0 0.02361,0.07083 l 0.778118,0.454757 a 0.05748629,0.05748629 0 0 0 0.08212,-0.02566 4.550656,4.550656 0 0 0 0.380846,-1.827243 c 0,-2.5232376 -2.053082,-4.5773461 -4.577346,-4.5773461 -0.8828252,0 -1.706111,0.2556087 -2.4051854,0.6898355 L 7.3546106,5.908067 a 0.05748629,0.05748629 0 0 0 -0.040035,-0.018478 0.05748629,0.05748629 0 0 0 -0.00616,3e-7 z m -0.8161,3.0180303 a 0.05748629,0.05748629 0 0 0 -0.037982,0.033876 4.5527091,4.5527091 0 0 0 -0.3562098,1.7677034 4.5855584,4.5855584 0 0 0 4.5783725,4.579399 c 0.882825,0 1.704058,-0.256635 2.404159,-0.690862 l 0.916701,0.915675 a 0.05748629,0.05748629 0 0 0 0.09855,-0.04106 v -2.649502 a 0.05748629,0.05748629 0 0 0 -0.05851,-0.05646 h -2.648475 a 0.05748629,0.05748629 0 0 0 -0.04106,0.09855 l 0.989585,0.988559 a 3.5066639,3.5066639 0 0 1 -1.660943,0.427041 3.5744156,3.5744156 0 0 1 -3.5703092,-3.571336 c 0,-0.442439 0.084176,-0.8643474 0.2330247,-1.256486 A 0.05748629,0.05748629 0 0 0 7.3145756,9.3818816 L 6.5364575,8.9148054 a 0.05748629,0.05748629 0 0 0 -0.033876,-0.00719 0.05748629,0.05748629 0 0 0 -0.010265,0 z M 3,1 2.5,1.5 v 12 L 3,14 H 5.7988281 A 5.9357347,5.9357347 0 0 1 5.2519531,13 H 3.5 V 2 h 5 V 5.1757812 A 5.9357347,5.9357347 0 0 1 9.5,4.875 V 2 l 2.880859,2.9804688 A 5.9357347,5.9357347 0 0 1 13.5,5.4375 V 5.0761719 L 13.400391,4.5996094 10,1.0996094 9.6992188,1 h -0.5625 z"/></svg>
