<?xml version="1.0" encoding="UTF-8" standalone="no"?>
<svg
   width="16"
   height="16"
   version="1.1"
   id="svg4"
   xmlns="http://www.w3.org/2000/svg"
   xmlns:svg="http://www.w3.org/2000/svg">
  <defs
     id="defs8" />
  <path
     id="path2"
     d="M 1.5,1 C 1.132,1.019 1.009,1.107 1,1.5 v 13 c 0.007,0.363 0.205,0.491 0.5,0.5 h 3.223 l 0.5,-1 H 2 V 2 h 2 v 4 h 7 V 2 h 1.793 L 14,3.207 v 1.875 h 0.307 L 15,5.775 V 3 A 0.739,0.739 0 0 0 14.854,2.646 l -1.5,-1.5 A 0.65,0.65 0 0 0 13,1 Z M 8,2 h 2 V 5 H 8 Z M 8.5384081,7.0851859 V 8.2793461 H 10.069021 V 7.0851859 Z m 4.8385109,1.8799372 c -0.718346,0 -1.250912,0.1228205 -1.599764,0.3674296 -0.346787,0.244609 -0.521213,0.6213275 -0.521213,1.1291243 0,0.469608 0.135206,0.819492 0.408714,1.049652 0.273508,0.231192 0.753437,0.390136 1.434626,0.4758 l 0.267316,0.03406 c 0.309632,0.03716 0.518117,0.08979 0.620296,0.157912 0.106306,0.06502 0.157911,0.167202 0.157911,0.304471 a 0.39529643,0.39529643 0 0 1 -0.22603,0.366398 c -0.150689,0.08257 -0.375687,0.124884 -0.674998,0.124884 A 4.361678,4.361678 0 0 1 11.328189,12.530017 V 13.6932 c 0.356077,0.09908 0.701832,0.172361 1.038299,0.220871 0.339562,0.05161 0.667772,0.0774 0.983596,0.0774 0.747244,0 1.307678,-0.129014 1.683364,-0.384976 0.376719,-0.256994 0.564562,-0.639905 0.564562,-1.149766 0,-0.487153 -0.134174,-0.844261 -0.405618,-1.072357 -0.270411,-0.227063 -0.798849,-0.3922 -1.582217,-0.491282 L 13.341828,10.8549 c -0.275573,-0.03097 -0.469609,-0.08051 -0.57798,-0.145526 a 0.31272798,0.31272798 0 0 1 -0.15688,-0.282797 0.35091588,0.35091588 0 0 1 0.209518,-0.332339 c 0.14243,-0.07431 0.358141,-0.1135319 0.649194,-0.1135319 0.270412,0 0.557337,0.035092 0.86284,0.1032109 0.304471,0.06915 0.621328,0.172362 0.949537,0.309633 V 9.22831 A 9.5593615,9.5593615 0 0 0 14.265562,9.0291136 6.5311639,6.5311639 0 0 0 13.376919,8.9640911 Z m -4.8385109,0.045513 v 4.6387416 c 0,0.383943 -0.054702,0.643002 -0.1630726,0.774079 -0.1083712,0.130045 -0.3085996,0.1961 -0.5986212,0.1961 H 7.5124952 v 1.005271 h 0.7555012 c 0.5841719,0 1.0321056,-0.171329 1.338641,-0.510892 0.3075674,-0.335434 0.4623836,-0.82362 0.4623836,-1.46559 V 9.0106364 Z"
     style="fill:#c5c5c5;fill-opacity:1" />
</svg>
