<?xml version="1.0" encoding="UTF-8" standalone="no"?>
<svg
   height="16"
   width="16"
   version="1.1"
   id="svg4"
   xmlns="http://www.w3.org/2000/svg"
   xmlns:svg="http://www.w3.org/2000/svg">
  <defs
     id="defs8" />
  <path
     d="m 8.577,12.037 0.79,0.79 5.15,-5.15 -0.79,-0.79 z m -0.69,1.03 -0.52,1 1.04,-0.48 z m 6.22,-7.24 1.5,1.5 -0.02,0.69 -5.5,5.5 -0.13,0.12 -0.37,0.37 -0.1,0.09 -3,1.5 -0.67,-0.67 1.5,-3 0.09,-0.1 0.37,-0.37 0.12,-0.13 5.5,-5.5 z M 1.5,1 C 1.132,1.019 1.009,1.107 1,1.5 v 13 c 0.007,0.363 0.205,0.491 0.5,0.5 h 2.8646748 l 0.5,-1 H 2 V 2 h 2 v 4 h 7 V 2 h 1.793 L 14,3.207 14,4.6769367 h 0.307 L 15,5.3699367 15,3 C 14.983236,2.871234 14.932883,2.7491464 14.854,2.646 l -1.5,-1.5 C 13.253337,1.062891 13.129983,1.0120162 13,1 Z M 8,2 h 2 V 5 H 8 Z"
     fill="#c5c5c5"
     id="path2" />
</svg>
