<?xml version="1.0" encoding="UTF-8" standalone="no"?>
<svg
   width="16"
   height="16"
   version="1.1"
   id="svg4"
   xmlns="http://www.w3.org/2000/svg"
   xmlns:svg="http://www.w3.org/2000/svg">
  <defs
     id="defs8" />
  <path
     d="M 3.326976,0.78034222 A 0.4527287,0.4527287 0 0 0 2.8752953,1.2351669 V 1.5086905 H 3.7818006 V 1.2351669 A 0.45482467,0.45482467 0 0 0 3.326976,0.78034222 Z M 3.7818006,1.5086905 v 1.4661283 a 0.45325269,0.45325269 0 0 1 -0.9065053,0 V 1.5086905 H 2.4037029 C 1.8136884,1.5086905 1.34,1.9855228 1.34,2.5755373 V 14.494249 C 1.34,15.084264 1.8136884,15.559 2.4037029,15.559 H 13.203169 c 0.591062,0 1.066847,-0.474736 1.066847,-1.064751 V 2.5755373 c 0,-0.5900145 -0.475785,-1.0668468 -1.066847,-1.0668468 H 12.731576 V 2.9748188 A 0.45063274,0.45063274 0 0 1 12.280944,3.4264996 0.45063274,0.45063274 0 0 1 11.828215,2.9748188 V 1.5086905 H 9.7500644 v 1.4661283 a 0.4532527,0.4532527 0 0 1 -0.9065054,0 V 1.5086905 H 6.7664565 v 1.4661283 a 0.45377669,0.45377669 0 0 1 -0.9075533,0 V 1.5086905 Z m 2.0771026,0 H 6.7664565 V 1.2351669 a 0.45482467,0.45482467 0 0 0 -0.9075533,0 z m 2.9846558,0 H 9.7500644 V 1.2351669 a 0.45482467,0.45482467 0 0 0 -0.9065054,0 z m 2.984656,0 h 0.904409 V 1.2351669 a 0.4527287,0.4527287 0 1 0 -0.904409,0 z M 2.2517453,4.1737115 H 13.354078 a 0.45063274,0.45063274 0 0 1 0.451681,0.4527287 V 14.68079 a 0.45063274,0.45063274 0 0 1 -0.451681,0.451681 H 2.2517453 A 0.45063274,0.45063274 0 0 1 1.7990166,14.68079 V 4.6264402 A 0.45063274,0.45063274 0 0 1 2.2517453,4.1737115 Z M 2.83128,5.4344352 a 0.41762127,0.41762127 0 1 0 0,0.8352425 h 9.94536 a 0.41762127,0.41762127 0 1 0 0,-0.8352425 z m 0,2.546599 a 0.41762127,0.41762127 0 1 0 0,0.8352425 h 9.94536 a 0.41762127,0.41762127 0 1 0 0,-0.8352425 z m 0,2.5465988 a 0.41709728,0.41709728 0 1 0 0,0.833147 h 9.94536 a 0.41709728,0.41709728 0 1 0 0,-0.833147 z m 0,2.544503 a 0.4170975,0.4170975 0 1 0 0,0.834195 h 9.94536 a 0.4170975,0.4170975 0 1 0 0,-0.834195 z"
     fill="#c5c5c5"
     paint-order="stroke fill markers"
     id="path2"
     style="stroke-width:1.04798" />
</svg>
