<?xml version="1.0" encoding="UTF-8" standalone="no"?><svg height="16" width="16" version="1.1" id="svg4" xmlns="http://www.w3.org/2000/svg" xmlns:svg="http://www.w3.org/2000/svg" fill="currentColor"><defs id="defs8"/><path d="M 6.258,2.893 6.154,2.943 1.521,5.213 V 7.238 C 1.511,7.242 1.499,7.242 1.488,7.246 0.768,7.486 0.224,8.16 0.068,9.139 V 9.146 L 0.066,9.152 C -0.12,10.606 0.3038125,11.888749 1.3124062,13.081968 1.0740424,13.245249 0.63705513,13.479769 0.385,13.621 l 0.486,0.875 c 0.3632927,-0.197948 0.7989974,-0.493987 1.1329375,-0.738219 0.47,0.29 0.8497187,0.459188 1.3277188,0.648188 L 3.727,13.561 C 3.327,13.402 2.989,13.279 2.689,13.129 3.0447324,12.706541 3.4511836,12.285567 3.774,11.951 l 2.484,1.217 H 16 V 2.893 Z m 0.232,1 H 15 v 8.275 H 6.49 L 2.521,10.223 V 8.0840313 C 2.9055625,8.1068438 3.134,8.202 3.484,8.287 3.6050553,8.8497282 4.1023983,9.2516847 4.678,9.252 5.3521117,9.2520009 5.8988967,8.7061108 5.9,8.032 5.9005526,7.3567175 5.3532827,6.8089998 4.678,6.809 4.2898364,6.8094553 3.9249757,6.9942983 3.695,7.307 3.3430587,7.2140298 2.9837089,7.1517961 2.621,7.121 2.587,7.119 2.555,7.124 2.521,7.123 V 5.838 L 6.491,3.893 Z M 1.521,8.255875 V 10.848 l 1.3890312,0.67125 C 2.595527,11.809938 2.2691795,12.177393 1.9299687,12.569875 1.350708,11.892132 0.80237092,10.824232 0.76019733,10.140578 0.74386734,9.8758612 0.80299036,9.5801675 0.83846936,9.3001529 0.92446931,8.7661529 1.2413125,8.39725 1.521,8.255875 Z" id="path2"/></svg>
