<?xml version="1.0" encoding="UTF-8" standalone="no"?><svg width="16" height="16" version="1.1" id="svg1135" xmlns="http://www.w3.org/2000/svg" xmlns:svg="http://www.w3.org/2000/svg" fill="currentColor"><defs id="defs1139"/><path id="path1133" style="fill:#c5c5c5;;stroke-width:0.831414" d="M 10.87352,7.9911198 V 9.062864 L 10.116804,8.3061477 9.5289685,8.8939831 10.285685,9.6506994 H 9.2155645 v 0.8314136 h 1.0717435 l -0.7583395,0.758341 0.5878355,0.587835 0.756716,-0.756716 v 1.07012 h 0.831414 v -1.071744 l 0.75834,0.75834 0.587835,-0.587835 -0.758339,-0.758341 h 1.071743 V 9.6506994 h -1.07012 L 13.051109,8.8939831 12.463274,8.3061477 11.704934,9.0644878 V 7.9911198 Z M 5.527,0.516 C 4.873,0.516 4.25,0.623 3.658,0.834 A 4.484,4.484 0 0 0 2.104,1.784 C 1.659,2.198 1.304,2.722 1.039,3.355 0.774,3.99 0.641,4.728 0.641,5.572 c 0,0.876 0.133,1.634 0.398,2.276 0.273,0.633 0.64,1.154 1.1,1.56 0.46,0.415 0.995,0.719 1.611,0.914 a 6.23,6.23 0 0 0 1.965,0.305 7.04,7.04 0 0 0 1.11,-0.082 C 7.175,10.49 7.416,10.439 7.549,10.393 L 7.434,9.525 A 4.638,4.638 0 0 1 6.848,9.655 6.416,6.416 0 0 1 5.715,9.736 c -0.592,0 -1.138,-0.09 -1.637,-0.27 A 3.586,3.586 0 0 1 2.793,8.691 3.675,3.675 0 0 1 1.951,7.391 C 1.749,6.867 1.646,6.261 1.646,5.572 1.646,4.915 1.741,4.329 1.928,3.812 2.123,3.296 2.391,2.862 2.734,2.51 A 3.39,3.39 0 0 1 3.961,1.69 4.08,4.08 0 0 1 5.527,1.396 c 0.57,0 1.08,0.094 1.532,0.282 0.46,0.187 0.85,0.445 1.17,0.773 0.319,0.329 0.564,0.713 0.736,1.15 0.171,0.43 0.256,0.89 0.256,1.383 0,0.298 -0.024,0.592 -0.07,0.881 C 9.104,6.147 9.031,6.4 8.93,6.627 8.836,6.854 8.71,7.039 8.555,7.18 A 0.736,0.736 0 0 1 8.029,7.39 0.423,0.423 0 0 1 7.689,7.238 C 7.604,7.137 7.561,6.959 7.561,6.709 V 3.121 A 5.599,5.599 0 0 0 6.789,2.934 5.787,5.787 0 0 0 5.703,2.838 c -0.42,0 -0.8,0.072 -1.135,0.213 C 4.241,3.191 3.96,3.386 3.727,3.637 3.501,3.879 3.33,4.167 3.213,4.504 A 3.131,3.131 0 0 0 3.037,5.561 c 0,0.445 0.063,0.835 0.188,1.171 0.124,0.337 0.299,0.623 0.525,0.858 0.226,0.227 0.491,0.398 0.795,0.515 0.312,0.118 0.655,0.176 1.03,0.176 0.24,0 0.482,-0.03 0.724,-0.094 0.241,-0.07 0.448,-0.152 0.619,-0.246 0.11,0.118 0.246,0.211 0.41,0.282 0.164,0.07 0.37,0.105 0.62,0.105 0.311,0 0.607,-0.07 0.888,-0.21 C 9.116,7.976 9.358,7.77 9.561,7.496 9.763,7.215 9.922,6.87 10.039,6.463 10.164,6.056 10.227,5.588 10.227,5.057 10.227,4.353 10.103,3.723 9.854,3.168 A 4.287,4.287 0 0 0 7.34,0.834 5.17,5.17 0 0 0 5.527,0.516 Z m 0.258,3.226 c 0.164,0 0.311,0.008 0.444,0.024 0.132,0.015 0.222,0.03 0.269,0.046 v 2.756 c 0,0.094 0.004,0.192 0.012,0.293 0.008,0.102 0.023,0.205 0.047,0.307 A 1.85,1.85 0 0 1 6.1,7.332 2.602,2.602 0 0 1 5.61,7.379 C 5.157,7.379 4.798,7.213 4.533,6.885 4.268,6.556 4.137,6.115 4.137,5.561 4.137,5.037 4.272,4.601 4.545,4.258 4.818,3.914 5.232,3.742 5.785,3.742 Z M 9.0976562,1 A 5.6553063,5.6553063 0 0 1 9.9667969,2 H 10.283203 V 2.5175781 A 5.6553063,5.6553063 0 0 1 10.953125,5.1875 5.6553063,5.6553063 0 0 1 10.892578,6 h 3.390625 v 7 H 5.2832031 v -1.654297 c -0.336165,-0.01941 -0.6704213,-0.06381 -1,-0.132812 V 13.5 l 0.5,0.5 h 9.9999999 l 0.5,-0.5 V 5 l -0.09961,-0.4003906 -3.400391,-3.5 L 11.482422,1 Z m 2.1855468,1 2.900391,3 h -2.900391 z"/></svg>
